STARTFONT 2.1
FONT vrb-37
SIZE 35 75 75
FONTBOUNDINGBOX 51 37 0 -10

STARTPROPERTIES 10
COPYRIGHT "Public domain font.  Share and enjoy."
POINT_SIZE 350
WEIGHT 10
RESOLUTION_X 75
RESOLUTION_Y 75
X_HEIGHT 27
QUAD_WIDTH 23
DEFAULT_CHAR 0
FONT_DESCENT 10
FONT_ASCENT 27
ENDPROPERTIES

CHARS 97

STARTCHAR C016
ENCODING 14
SWIDTH 1457 0
DWIDTH 51 0
BBX 51 37 0 -10
BITMAP
00000000000000
00000000000000
00000000000000
00F0003C0FF800
03FC00FF0FF800
07FE01FF8FF800
0F8F03E3C3F800
0F9F03E7C1F800
1F9F07E7C1F800
1F8E07E381F800
1F8007E001F800
1F8007E001F800
FFFC3FFF01F800
FFFC3FFF01F800
FFFC3FFF01F800
1F8007E001F800
1F8007E001F800
1F8007E001F800
1F8007E001F800
1F8007E001F800
1F8007E001F800
1F8007E001F800
1F8007E001F800
1F8007E003FC00
3FC00FF00FFF00
FFF83FFE0FFF00
FFF83FFE0FFF00
00000000000000
00000000000000
00000000000000
00000000000000
00000000000000
00000000000000
00000000000000
00000000000000
00000000000000
00000000000000
ENDCHAR

STARTCHAR C032
ENCODING 26
SWIDTH 1457 0
DWIDTH 51 0
BBX 51 37 0 -10
BITMAP
00000000000000
00000000000000
00000000000000
00F0003C000000
03FC00FF01F000
07FE01FF83F800
0F8F03E3C3F800
0F9F03E7C3F800
1F9F07E7C3F800
1F8E07E381F000
1F8007E0000000
1F8007E0000000
FFFC3FFF0FF800
FFFC3FFF0FF800
FFFC3FFF0FF800
1F8007E003F800
1F8007E001F800
1F8007E001F800
1F8007E001F800
1F8007E001F800
1F8007E001F800
1F8007E001F800
1F8007E001F800
1F8007E003FC00
3FC00FF00FFF00
FFF83FFE0FFF00
FFF83FFE0FFF00
00000000000000
00000000000000
00000000000000
00000000000000
00000000000000
00000000000000
00000000000000
00000000000000
00000000000000
00000000000000
ENDCHAR

STARTCHAR C035
ENCODING 29
SWIDTH 1028 0
DWIDTH 36 0
BBX 36 37 0 -10
BITMAP
0000000000
0000000000
0000000000
00F0003C00
03FC00FF00
07FE01FF80
0F8F03E3C0
0F9F03E7C0
1F9F07E7C0
1F8E07E380
1F8007E000
1F8007E000
FFFC3FFF00
FFFC3FFF00
FFFC3FFF00
1F8007E000
1F8007E000
1F8007E000
1F8007E000
1F8007E000
1F8007E000
1F8007E000
1F8007E000
1F8007E000
3FC00FF000
FFF83FFE00
FFF83FFE00
0000000000
0000000000
0000000000
0000000000
0000000000
0000000000
0000000000
0000000000
0000000000
0000000000
ENDCHAR

STARTCHAR C036
ENCODING 30
SWIDTH 942 0
DWIDTH 33 0
BBX 33 37 0 -10
BITMAP
0000000000
0000000000
0000000000
00F0000000
03FC07C000
07FE0FE000
0F8F0FE000
0F9F0FE000
1F9F0FE000
1F8E07C000
1F80000000
1F80000000
FFFC3FE000
FFFC3FE000
FFFC3FE000
1F800FE000
1F8007E000
1F8007E000
1F8007E000
1F8007E000
1F8007E000
1F8007E000
1F8007E000
1F800FF000
3FC03FFC00
FFF83FFC00
FFF83FFC00
0000000000
0000000000
0000000000
0000000000
0000000000
0000000000
0000000000
0000000000
0000000000
0000000000
ENDCHAR

STARTCHAR C037
ENCODING 31
SWIDTH 942 0
DWIDTH 33 0
BBX 33 37 0 -10
BITMAP
0000000000
0000000000
0000000000
00F03FE000
03FC3FE000
07FE3FE000
0F8F0FE000
0F9F07E000
1F9F07E000
1F8E07E000
1F8007E000
1F8007E000
FFFC07E000
FFFC07E000
FFFC07E000
1F8007E000
1F8007E000
1F8007E000
1F8007E000
1F8007E000
1F8007E000
1F8007E000
1F8007E000
1F800FF000
3FC03FFC00
FFF83FFC00
FFF83FFC00
0000000000
0000000000
0000000000
0000000000
0000000000
0000000000
0000000000
0000000000
0000000000
0000000000
ENDCHAR

STARTCHAR C040
ENCODING 32
SWIDTH 542 0
DWIDTH 19 0
BBX 19 37 0 -10
BITMAP
000000
000000
000000
000000
000000
000000
000000
000000
000000
000000
000000
000000
000000
000000
000000
000000
000000
000000
000000
000000
000000
000000
000000
000000
000000
000000
000000
000000
000000
000000
000000
000000
000000
000000
000000
000000
000000
ENDCHAR

STARTCHAR "
ENCODING 34
SWIDTH 428 0
DWIDTH 15 0
BBX 15 37 0 -10
BITMAP
0000
0000
0000
3060
78F0
F8F8
F8F8
F8F8
78F0
78F0
38E0
18C0
0880
0000
0000
0000
0000
0000
0000
0000
0000
0000
0000
0000
0000
0000
0000
0000
0000
0000
0000
0000
0000
0000
0000
0000
0000
ENDCHAR

STARTCHAR #
ENCODING 35
SWIDTH 628 0
DWIDTH 22 0
BBX 22 37 0 -10
BITMAP
000000
000000
000000
000000
000000
0E0E00
0E0E00
0E0E00
0E0E00
0E0E00
FFFFE0
FFFFE0
FFFFE0
0E0E00
0E0E00
0E0E00
0E0E00
0E0E00
FFFFE0
FFFFE0
FFFFE0
0E0E00
0E0E00
0E0E00
0E0E00
0E0E00
000000
000000
000000
000000
000000
000000
000000
000000
000000
000000
000000
ENDCHAR

STARTCHAR $
ENCODING 36
SWIDTH 800 0
DWIDTH 28 0
BBX 28 37 0 -10
BITMAP
00000000
00000000
00000000
00700000
00700000
00700000
03FE0000
0F778000
3C71E000
F070F000
F070F000
F0700000
F0700000
F8700000
78700000
3C700000
0FFF8000
0071E000
0070F000
00707800
00707800
00707800
F0707800
F070F000
7871E000
3C73C000
0FFF0000
01FC0000
00700000
00700000
00000000
00000000
00000000
00000000
00000000
00000000
00000000
ENDCHAR

STARTCHAR %
ENCODING 37
SWIDTH 514 0
DWIDTH 18 0
BBX 18 37 0 -10
BITMAP
000000
000000
000000
000000
000000
000000
3FFE00
7E1C00
C63800
C63800
C67000
7C7000
387000
00E000
00E000
01C000
01C000
038000
038000
038000
071C00
073E00
0E6300
0E6300
0E6300
1C3E00
3FFC00
000000
000000
000000
000000
000000
000000
000000
000000
000000
000000
ENDCHAR

STARTCHAR &
ENCODING 38
SWIDTH 542 0
DWIDTH 19 0
BBX 19 37 0 -10
BITMAP
000000
000000
000000
000000
000000
000000
000000
000000
000000
000000
000000
000000
F81F00
FC3F00
7E7E00
1FF800
07E000
07E000
1FF800
7E7E00
FC3F00
F81F00
000000
000000
000000
000000
000000
000000
000000
000000
000000
000000
000000
000000
000000
000000
000000
ENDCHAR

STARTCHAR '
ENCODING 39
SWIDTH 257 0
DWIDTH 9 0
BBX 9 37 0 -10
BITMAP
0000
0000
0000
3C00
FE00
FF00
FF00
E700
0300
0600
1C00
3800
3000
1000
0000
0000
0000
0000
0000
0000
0000
0000
0000
0000
0000
0000
0000
0000
0000
0000
0000
0000
0000
0000
0000
0000
0000
ENDCHAR

STARTCHAR (
ENCODING 40
SWIDTH 542 0
DWIDTH 19 0
BBX 19 37 0 -10
BITMAP
000000
000000
01C000
038000
0F0000
1F0000
1E0000
3E0000
3C0000
3C0000
780000
F80000
F80000
F80000
F80000
F80000
F80000
780000
3C0000
3C0000
3E0000
1E0000
1E0000
0F0000
038000
01C000
000000
000000
000000
000000
000000
000000
000000
000000
000000
000000
000000
ENDCHAR

STARTCHAR )
ENCODING 41
SWIDTH 542 0
DWIDTH 19 0
BBX 19 37 0 -10
BITMAP
000000
000000
E00000
700000
3C0000
3E0000
1E0000
1F0000
0F0000
0F0000
078000
07C000
07C000
07C000
07C000
07C000
07C000
078000
0F0000
0F0000
1F0000
1E0000
1E0000
3C0000
700000
E00000
000000
000000
000000
000000
000000
000000
000000
000000
000000
000000
000000
ENDCHAR

STARTCHAR +
ENCODING 43
SWIDTH 514 0
DWIDTH 18 0
BBX 18 37 0 -10
BITMAP
000000
000000
000000
000000
000000
000000
000000
000000
078000
078000
078000
078000
078000
FFFC00
FFFC00
FFFC00
FFFC00
078000
078000
078000
078000
078000
000000
000000
000000
000000
000000
000000
000000
000000
000000
000000
000000
000000
000000
000000
000000
ENDCHAR

STARTCHAR ,
ENCODING 44
SWIDTH 371 0
DWIDTH 13 0
BBX 13 37 0 -10
BITMAP
0000
0000
0000
0000
0000
0000
0000
0000
0000
0000
0000
0000
0000
0000
0000
0000
0000
0000
0000
0000
0000
7C00
FE00
FE00
FF00
FF00
7F00
0F00
0F00
1E00
1C00
1800
1000
0000
0000
0000
0000
ENDCHAR

STARTCHAR -
ENCODING 45
SWIDTH 428 0
DWIDTH 15 0
BBX 15 37 0 -10
BITMAP
0000
0000
0000
0000
0000
0000
0000
0000
0000
0000
0000
0000
0000
0000
FFF0
FFF0
FFF0
FFF0
0000
0000
0000
0000
0000
0000
0000
0000
0000
0000
0000
0000
0000
0000
0000
0000
0000
0000
0000
ENDCHAR

STARTCHAR .
ENCODING 46
SWIDTH 342 0
DWIDTH 12 0
BBX 12 37 0 -10
BITMAP
0000
0000
0000
0000
0000
0000
0000
0000
0000
0000
0000
0000
0000
0000
0000
0000
0000
0000
0000
0000
0000
7C00
FE00
FE00
FE00
FE00
7C00
0000
0000
0000
0000
0000
0000
0000
0000
0000
0000
ENDCHAR

STARTCHAR /
ENCODING 47
SWIDTH 457 0
DWIDTH 16 0
BBX 16 37 0 -10
BITMAP
0000
0078
0070
00F0
00F0
00E0
01E0
01E0
01C0
03C0
03C0
0380
0780
0780
0700
0F00
0F00
0E00
1E00
1E00
1C00
3C00
3C00
3800
7800
7800
7000
F000
F000
E000
E000
0000
0000
0000
0000
0000
0000
ENDCHAR

STARTCHAR 0
ENCODING 48
SWIDTH 742 0
DWIDTH 26 0
BBX 26 37 0 -10
BITMAP
00000000
00000000
00000000
00700000
03FE0000
0FFF8000
1FFFC000
3F07E000
3E03E000
7C03F000
7C01F000
FC01F800
FC01F800
FC01F800
FC01F800
FC01F800
FC01F800
FC01F800
FC01F800
FC01F800
7C01F000
7C01F000
3E03E000
1F8FC000
0FFF8000
07FF0000
01F80000
00000000
00000000
00000000
00000000
00000000
00000000
00000000
00000000
00000000
00000000
ENDCHAR

STARTCHAR 1
ENCODING 49
SWIDTH 542 0
DWIDTH 19 0
BBX 19 37 0 -10
BITMAP
000000
000000
00E000
01E000
01E000
07E000
7FE000
FFE000
FFE000
FFE000
07E000
07E000
07E000
07E000
07E000
07E000
07E000
07E000
07E000
07E000
07E000
07E000
07E000
0FF000
FFFE00
FFFE00
FFFE00
000000
000000
000000
000000
000000
000000
000000
000000
000000
000000
ENDCHAR

STARTCHAR 2
ENCODING 50
SWIDTH 714 0
DWIDTH 25 0
BBX 25 37 0 -10
BITMAP
00000000
00000000
00000000
00F80000
07FF0000
1FFFC000
3E1FE000
380FF000
7C07F800
7E03F800
7F03F800
7F03F800
7E03F000
3E07F000
0007E000
001FC000
007F8000
01FE0000
07F03800
0FC03800
1E003800
3CE03800
7FFC7800
7FFFF000
FFFFF000
F0FFE000
C01F8000
00000000
00000000
00000000
00000000
00000000
00000000
00000000
00000000
00000000
00000000
ENDCHAR

STARTCHAR 3
ENCODING 51
SWIDTH 628 0
DWIDTH 22 0
BBX 22 37 0 -10
BITMAP
000000
000000
000000
03F800
0FFF00
1FFF80
3E3FC0
780FE0
7C07E0
FE07E0
7E07E0
7E07E0
380FC0
003F80
01FF00
01FF00
00FFC0
380FE0
7C07F0
FE07F0
FE07F0
FC07F0
F807F0
700FE0
3FFFC0
1FFF80
07FC00
000000
000000
000000
000000
000000
000000
000000
000000
000000
000000
ENDCHAR

STARTCHAR 4
ENCODING 52
SWIDTH 714 0
DWIDTH 25 0
BBX 25 37 0 -10
BITMAP
00000000
00000000
00000000
00038000
00078000
000F8000
001F8000
003F8000
007F8000
00EF8000
01CF8000
038F8000
070F8000
0E0F8000
1C0F8000
380F8000
700F8000
FFFFFC00
FFFFFC00
FFFFFC00
000F8000
000F8000
000F8000
001F8000
01FFF800
01FFF800
01FFF800
00000000
00000000
00000000
00000000
00000000
00000000
00000000
00000000
00000000
00000000
ENDCHAR

STARTCHAR 5
ENCODING 53
SWIDTH 657 0
DWIDTH 23 0
BBX 23 37 0 -10
BITMAP
000000
000000
000000
000060
7FFFE0
7FFFC0
7FFF80
7FFE00
700000
700000
700000
73F800
77FC00
7FFF00
7E7F80
781FC0
700FE0
0007E0
3807E0
7C07E0
FE07E0
FE07E0
FC0FE0
F81FC0
7FFF80
3FFF00
07F800
000000
000000
000000
000000
000000
000000
000000
000000
000000
000000
ENDCHAR

STARTCHAR 6
ENCODING 54
SWIDTH 685 0
DWIDTH 24 0
BBX 24 37 0 -10
BITMAP
000000
000000
000000
00FC00
03FF00
0FFFC0
1F83C0
3F07E0
3E0FE0
7E0FE0
7C0FE0
FC07C0
FC0000
FCF800
FDFF00
FFFFC0
FF0FE0
FC07E0
FC07F0
FC03F0
FC03F0
7C03F0
7C07E0
3E07C0
1FFFC0
0FFF00
03FC00
000000
000000
000000
000000
000000
000000
000000
000000
000000
000000
ENDCHAR

STARTCHAR 7
ENCODING 55
SWIDTH 685 0
DWIDTH 24 0
BBX 24 37 0 -10
BITMAP
000000
000000
000000
000000
E7E0F0
EFFFF0
FFFFF0
FFFFF0
F8FFF0
F003E0
E007C0
E00F80
E01F00
E03E00
003E00
007C00
00FC00
01F800
01F000
03F000
07F000
07E000
07E000
0FC000
0FC000
0FC000
0FC000
000000
000000
000000
000000
000000
000000
000000
000000
000000
000000
ENDCHAR

STARTCHAR 8
ENCODING 56
SWIDTH 657 0
DWIDTH 23 0
BBX 23 37 0 -10
BITMAP
000000
000000
000000
03F800
0FFF00
1FFF80
3E0FC0
7C07C0
7803E0
F803E0
F803E0
FC07C0
7F9F80
7FFF00
3FFE00
1FFE00
0FFF00
3F7FC0
7C1FE0
F807E0
F803E0
F801E0
F803C0
7C07C0
7FFF80
1FFF00
03F000
000000
000000
000000
000000
000000
000000
000000
000000
000000
000000
ENDCHAR

STARTCHAR 9
ENCODING 57
SWIDTH 685 0
DWIDTH 24 0
BBX 24 37 0 -10
BITMAP
000000
000000
000000
03F000
0FFC00
1FFE00
3F1F80
7E07C0
FC07C0
FC07E0
FC03E0
FC03F0
FC03F0
FC07F0
7FFFF0
7FFFF0
1FFBF0
03E3F0
3803F0
7C03F0
7E07E0
FE07E0
FE0FC0
7C1F80
3FFF00
1FFE00
07F000
000000
000000
000000
000000
000000
000000
000000
000000
000000
000000
ENDCHAR

STARTCHAR :
ENCODING 58
SWIDTH 342 0
DWIDTH 12 0
BBX 12 37 0 -10
BITMAP
0000
0000
0000
0000
0000
0000
0000
7C00
FE00
FE00
FE00
FE00
7C00
0000
0000
0000
0000
0000
0000
0000
0000
7C00
FE00
FE00
FE00
FE00
7C00
0000
0000
0000
0000
0000
0000
0000
0000
0000
0000
ENDCHAR

STARTCHAR ;
ENCODING 59
SWIDTH 371 0
DWIDTH 13 0
BBX 13 37 0 -10
BITMAP
0000
0000
0000
0000
0000
0000
0000
7C00
FE00
FE00
FE00
FE00
7C00
0000
0000
0000
0000
0000
0000
0000
0000
7C00
FE00
FE00
FF00
FF00
7F00
0F00
0F00
1E00
1C00
1800
1000
0000
0000
0000
0000
ENDCHAR

STARTCHAR <
ENCODING 60
SWIDTH 714 0
DWIDTH 25 0
BBX 25 37 0 -10
BITMAP
00000000
00000000
00000000
00000000
00000000
00000000
00000000
0000F000
0001F000
0007F000
001F8000
007E0000
01F80000
07E00000
1FC00000
FE000000
FE000000
FE000000
1FC00000
07E00000
01F80000
007E0000
001F8000
0007F000
0001F000
0000F000
00000000
00000000
00000000
00000000
00000000
00000000
00000000
00000000
00000000
00000000
00000000
ENDCHAR

STARTCHAR =
ENCODING 61
SWIDTH 542 0
DWIDTH 19 0
BBX 19 37 0 -10
BITMAP
000000
000000
000000
000000
000000
000000
000000
000000
000000
000000
000000
000000
FFFF00
FFFF00
000000
000000
000000
000000
FFFF00
FFFF00
000000
000000
000000
000000
000000
000000
000000
000000
000000
000000
000000
000000
000000
000000
000000
000000
000000
ENDCHAR

STARTCHAR >
ENCODING 62
SWIDTH 714 0
DWIDTH 25 0
BBX 25 37 0 -10
BITMAP
00000000
00000000
00000000
00000000
00000000
00000000
00000000
F0000000
F8000000
FE000000
1F800000
07E00000
01F80000
007E0000
003F8000
0007F000
0007F000
0007F000
003F8000
007E0000
01F80000
07E00000
1FC00000
FE000000
F8000000
F0000000
00000000
00000000
00000000
00000000
00000000
00000000
00000000
00000000
00000000
00000000
00000000
ENDCHAR

STARTCHAR ?
ENCODING 63
SWIDTH 600 0
DWIDTH 21 0
BBX 21 37 0 -10
BITMAP
000000
000000
000000
1F0000
3FC000
79E000
78F000
F07000
F87800
F8F800
70F800
01F800
01F000
03E000
078000
0F0000
0E0000
0C0000
0C0000
000000
000000
1E0000
3F0000
3F0000
3F0000
3F0000
1E0000
000000
000000
000000
000000
000000
000000
000000
000000
000000
000000
ENDCHAR

STARTCHAR A
ENCODING 65
SWIDTH 885 0
DWIDTH 31 0
BBX 31 37 0 -10
BITMAP
00000000
00000000
00000000
001F0000
001F0000
003F8000
003F8000
007FC000
007FC000
00FFC000
00E7E000
00E7E000
01E7E000
01C3F000
03C3F000
0381F800
0781F800
07FFF800
0FFFFC00
0FFFFC00
1FFFFE00
1F00FE00
1E007E00
3E007F00
FFC7FFE0
FFC7FFE0
FFC7FFE0
00000000
00000000
00000000
00000000
00000000
00000000
00000000
00000000
00000000
00000000
ENDCHAR

STARTCHAR B
ENCODING 66
SWIDTH 800 0
DWIDTH 28 0
BBX 28 37 0 -10
BITMAP
00000000
00000000
00000000
FFFFE000
FFFFF800
FFFFFC00
FFC0FE00
1F807F00
0F803F00
0F803F00
0F803F00
0F803F00
0F807E00
0FFFFC00
0FFFF800
0FFFF800
0FFFFE00
0F807F00
0F803F00
0F801F80
0F801F80
0F801F80
0F803F00
1F807F00
FFFFFE00
FFFFFC00
FFFFF000
00000000
00000000
00000000
00000000
00000000
00000000
00000000
00000000
00000000
00000000
ENDCHAR

STARTCHAR C
ENCODING 67
SWIDTH 742 0
DWIDTH 26 0
BBX 26 37 0 -10
BITMAP
00000000
00000000
00000000
00FE3C00
03FF3C00
07FFFC00
0FE3FC00
1F81FC00
3F00FC00
3F007C00
7E007C00
7E003C00
7E003C00
FE000000
FE000000
FE000000
FE000000
FE003C00
FE003C00
FE003C00
7E007800
7F007800
3F00F000
1FC3F000
0FFFE000
07FF8000
01FE0000
00000000
00000000
00000000
00000000
00000000
00000000
00000000
00000000
00000000
00000000
ENDCHAR

STARTCHAR D
ENCODING 68
SWIDTH 857 0
DWIDTH 30 0
BBX 30 37 0 -10
BITMAP
00000000
00000000
00000000
FFFF0000
FFFFE000
FFFFF800
FF81FC00
3F80FE00
1F803F00
1F803F80
1F801F80
1F801F80
1F801FC0
1F801FC0
1F801FC0
1F801FC0
1F801FC0
1F801FC0
1F801F80
1F801F80
1F801F80
1F803F00
1F807E00
3F81FC00
FFFFF800
FFFFF000
FFFF8000
00000000
00000000
00000000
00000000
00000000
00000000
00000000
00000000
00000000
00000000
ENDCHAR

STARTCHAR E
ENCODING 69
SWIDTH 828 0
DWIDTH 29 0
BBX 29 37 0 -10
BITMAP
00000000
00000000
00000000
FFFFFF80
FFFFFF80
FFFFFF80
1FE01F80
0FE00780
0FE00780
0FE3C780
0FE3C780
0FE3C780
0FE3C780
0FE3C000
0FFFC000
0FFFC000
0FFFC000
0FC3C780
0FC3C780
0FC3C780
0FC3C780
0FC00780
0FC00780
1FC01F80
FFFFFF80
FFFFFF80
FFFFFF80
00000000
00000000
00000000
00000000
00000000
00000000
00000000
00000000
00000000
00000000
ENDCHAR

STARTCHAR F
ENCODING 70
SWIDTH 771 0
DWIDTH 27 0
BBX 27 37 0 -10
BITMAP
00000000
00000000
00000000
FFFFFE00
FFFFFE00
FFFFFE00
3F80FE00
1F803E00
1F801E00
1F801E00
1F839E00
1F839E00
1F839E00
1F878000
1FFF8000
1FFF8000
1FFF8000
1F878000
1F838000
1F838000
1F838000
1F800000
1F800000
3FC00000
FFFC0000
FFFC0000
FFFC0000
00000000
00000000
00000000
00000000
00000000
00000000
00000000
00000000
00000000
00000000
ENDCHAR

STARTCHAR G
ENCODING 71
SWIDTH 857 0
DWIDTH 30 0
BBX 30 37 0 -10
BITMAP
00000000
00000000
00000000
007C1C00
01FF1C00
07FFFC00
0FF7FC00
1FC1FC00
3F80FC00
7F007C00
7E003C00
7E003C00
FE003C00
FC001C00
FC000000
FC000000
FC0FFFC0
FC0FFFC0
FC0FFFC0
FE00FC00
FE00FC00
7E00FC00
7F00FC00
3F81FC00
1FFFFC00
0FFFBC00
03FF1C00
00000000
00000000
00000000
00000000
00000000
00000000
00000000
00000000
00000000
00000000
ENDCHAR

STARTCHAR H
ENCODING 72
SWIDTH 914 0
DWIDTH 32 0
BBX 32 37 0 -10
BITMAP
00000000
00000000
00000000
FFF9FFF0
FFF9FFF0
FFF9FFF0
3FC03FC0
1F801F80
1F801F80
1F801F80
1F801F80
1F801F80
1F801F80
1FFFFF80
1FFFFF80
1FFFFF80
1F801F80
1F801F80
1F801F80
1F801F80
1F801F80
1F801F80
1F801F80
3FC03FC0
FFF9FFF0
FFF9FFF0
FFF9FFF0
00000000
00000000
00000000
00000000
00000000
00000000
00000000
00000000
00000000
00000000
ENDCHAR

STARTCHAR I
ENCODING 73
SWIDTH 514 0
DWIDTH 18 0
BBX 18 37 0 -10
BITMAP
000000
000000
000000
FFFC00
FFFC00
FFFC00
1FE000
0FC000
0FC000
0FC000
0FC000
0FC000
0FC000
0FC000
0FC000
0FC000
0FC000
0FC000
0FC000
0FC000
0FC000
0FC000
0FC000
1FE000
FFFC00
FFFC00
FFFC00
000000
000000
000000
000000
000000
000000
000000
000000
000000
000000
ENDCHAR

STARTCHAR J
ENCODING 74
SWIDTH 628 0
DWIDTH 22 0
BBX 22 37 0 -10
BITMAP
000000
000000
000000
07FFC0
07FFC0
07FFC0
00FF00
007E00
007E00
007E00
007E00
007E00
007E00
007E00
007E00
007E00
007E00
007E00
307E00
787E00
FC7E00
FC7E00
F87E00
F0FC00
7FF800
3FF000
1F8000
000000
000000
000000
000000
000000
000000
000000
000000
000000
000000
ENDCHAR

STARTCHAR K
ENCODING 75
SWIDTH 828 0
DWIDTH 29 0
BBX 29 37 0 -10
BITMAP
00000000
00000000
00000000
FFEFFF00
FFEFFF00
FFEFFF00
3F83FC00
1F01F000
1F01E000
1F03C000
1F078000
1F0F0000
1F1E0000
1F3E0000
1F7F0000
1FFF8000
1FFFC000
1F8FC000
1F07E000
1F03F000
1F01F000
1F01F800
1F00FC00
3F80FE00
FFE7FF80
FFE7FF80
FFE7FF80
00000000
00000000
00000000
00000000
00000000
00000000
00000000
00000000
00000000
00000000
ENDCHAR

STARTCHAR L
ENCODING 76
SWIDTH 771 0
DWIDTH 27 0
BBX 27 37 0 -10
BITMAP
00000000
00000000
00000000
FFFC0000
FFFC0000
FFFC0000
1FC00000
0F800000
0F800000
0F800000
0F800000
0F800000
0F800000
0F800000
0F800000
0F800000
0F800000
0F800000
0F801E00
0F801E00
0F801E00
0F801E00
0F801E00
1F803E00
FFFFFE00
FFFFFE00
FFFFFE00
00000000
00000000
00000000
00000000
00000000
00000000
00000000
00000000
00000000
00000000
ENDCHAR

STARTCHAR M
ENCODING 77
SWIDTH 1085 0
DWIDTH 38 0
BBX 38 37 0 -10
BITMAP
0000000000
0000000000
0000000000
FFE003FFC0
FFE003FFC0
FFF007FFC0
FFF007FFC0
3FF00FFE00
1FF80FFC00
1FF80FFC00
1FF81FFC00
1EFC1EFC00
1EFC1EFC00
1E7C3CFC00
1E7E3CFC00
1E7E3CFC00
1E3F78FC00
1E3F78FC00
1E3FF0FC00
1E1FF0FC00
1E1FF0FC00
1E0FE0FC00
1E0FE0FC00
3F07E1FE00
FFE7CFFFC0
FFE7CFFFC0
FFE38FFFC0
0000000000
0000000000
0000000000
0000000000
0000000000
0000000000
0000000000
0000000000
0000000000
0000000000
ENDCHAR

STARTCHAR N
ENCODING 78
SWIDTH 857 0
DWIDTH 30 0
BBX 30 37 0 -10
BITMAP
00000000
00000000
00000000
FF007FE0
FFC07FE0
FFE07FE0
FFF07FE0
3FF01F80
1FF80F00
1FFC0F00
1FFC0F00
1EFE0F00
1E7F0F00
1E7F0F00
1E3F8F00
1E1FCF00
1E0FEF00
1E0FEF00
1E07FF00
1E03FF00
1E03FF00
1E01FF00
1E00FF00
3F00FF00
FFC0FF00
FFC07F00
FFC03F00
00000000
00000000
00000000
00000000
00000000
00000000
00000000
00000000
00000000
00000000
ENDCHAR

STARTCHAR O
ENCODING 79
SWIDTH 857 0
DWIDTH 30 0
BBX 30 37 0 -10
BITMAP
00000000
00000000
00000000
00FF0000
03FFC000
07FFF000
0FC3F800
1F81FC00
3F007E00
7E007E00
7E003F00
7C003F00
FC003F00
FC003F80
FC003F80
FC003F80
FC003F80
FC003F80
FC003F00
FC003F00
7E003F00
7E007E00
3F00FC00
1FC3F800
0FFFF000
03FFC000
007C0000
00000000
00000000
00000000
00000000
00000000
00000000
00000000
00000000
00000000
00000000
ENDCHAR

STARTCHAR P
ENCODING 80
SWIDTH 771 0
DWIDTH 27 0
BBX 27 37 0 -10
BITMAP
00000000
00000000
00000000
FFFFC000
FFFFF000
FFFFF800
FF81FC00
3F80FE00
1F807E00
1F807E00
1F807E00
1F807E00
1F807E00
1F80FE00
1FFFFC00
1FFFF800
1FFFF000
1FC00000
1FC00000
1FC00000
1FC00000
1FC00000
1FC00000
3FE00000
FFFC0000
FFFC0000
FFFC0000
00000000
00000000
00000000
00000000
00000000
00000000
00000000
00000000
00000000
00000000
ENDCHAR

STARTCHAR Q
ENCODING 81
SWIDTH 857 0
DWIDTH 30 0
BBX 30 37 0 -10
BITMAP
00000000
00000000
00000000
003C0000
01FF8000
07FFE000
0FFFF000
1F83F800
3F00FC00
7E007E00
7C007E00
FC007F00
F8003F00
F8003F00
F8003F00
F8003F00
F8003F00
F8383F00
F87C3F00
FCFF3F00
FDFFFE00
7FC7FEE0
3F83FCE0
3FC3F8E0
0FFFFDE0
07FFFFC0
01FFFFC0
00003F80
00001F00
00000000
00000000
00000000
00000000
00000000
00000000
00000000
00000000
ENDCHAR

STARTCHAR R
ENCODING 82
SWIDTH 857 0
DWIDTH 30 0
BBX 30 37 0 -10
BITMAP
00000000
00000000
00000000
FFFFF800
FFFFFC00
FFFFFE00
1FC07F00
0FC03F00
0FC03F00
0FC03F00
0FC03F00
0FC03E00
0FC07C00
0FFFF800
0FFFE000
0FFFF800
0FC1F800
0FC0FC00
0FC0FC00
0FC0FC00
0FC0FEC0
0FC0FEC0
0FC0FEC0
1FE0FFC0
FFFC7FC0
FFFC3F80
FFFC1F00
00000000
00000000
00000000
00000000
00000000
00000000
00000000
00000000
00000000
00000000
ENDCHAR

STARTCHAR S
ENCODING 83
SWIDTH 685 0
DWIDTH 24 0
BBX 24 37 0 -10
BITMAP
000000
000000
000000
07E1E0
1FFDE0
3FFFE0
7E7FE0
FC1FE0
F807E0
F803E0
F801E0
FC01E0
FFC000
FFFC00
7FFF80
3FFFC0
3FFFE0
07FFE0
E03FF0
E003F0
F001F0
F001F0
F801F0
FE03E0
FFFFC0
EFFF80
E3FF00
000000
000000
000000
000000
000000
000000
000000
000000
000000
000000
ENDCHAR

STARTCHAR T
ENCODING 84
SWIDTH 771 0
DWIDTH 27 0
BBX 27 37 0 -10
BITMAP
00000000
00000000
00000000
FFFFFE00
FFFFFE00
FFFFFE00
F8FC7E00
F0FC3E00
F0FC1E00
E0FC1E00
E0FC1E00
E0FC1E00
00FC0000
00FC0000
00FC0000
00FC0000
00FC0000
00FC0000
00FC0000
00FC0000
00FC0000
00FC0000
00FC0000
01FE0000
0FFFE000
0FFFE000
0FFFE000
00000000
00000000
00000000
00000000
00000000
00000000
00000000
00000000
00000000
00000000
ENDCHAR

STARTCHAR U
ENCODING 85
SWIDTH 828 0
DWIDTH 29 0
BBX 29 37 0 -10
BITMAP
00000000
00000000
00000000
FFF3FF80
FFF3FF80
FFF3FF80
FFF3FF80
3FC07E00
1F803C00
1F803C00
1F803C00
1F803C00
1F803C00
1F803C00
1F803C00
1F803C00
1F803C00
1F803C00
1F803C00
1F803C00
1F803C00
1F807800
0FC07800
0FFFF000
07FFE000
03FFC000
003C0000
00000000
00000000
00000000
00000000
00000000
00000000
00000000
00000000
00000000
00000000
ENDCHAR

STARTCHAR V
ENCODING 86
SWIDTH 771 0
DWIDTH 27 0
BBX 27 37 0 -10
BITMAP
00000000
00000000
00000000
FFF3FF00
FFF3FF00
FFF3FF00
3FC07E00
1F803C00
1F803C00
1F807800
1F807800
0FC0F000
0FC0F000
07C0F000
07E1E000
07E1E000
03E1E000
03F3C000
01F3C000
01F7C000
01FF8000
00FF8000
00FF0000
00FF0000
007F0000
007E0000
007E0000
00000000
00000000
00000000
00000000
00000000
00000000
00000000
00000000
00000000
00000000
ENDCHAR

STARTCHAR W
ENCODING 87
SWIDTH 1114 0
DWIDTH 39 0
BBX 39 37 0 -10
BITMAP
0000000000
0000000000
0000000000
FFE7FF9FE0
FFE7FF9FE0
FFE7FF9FE0
3F81FE0FC0
1F01FC0780
1F01FC0780
1F81FC0780
1F83FE0780
0F83FE0F00
0FC3FE0F00
0FC3FF0F00
07C7BF1E00
07E79F9E00
07E71F9E00
03EF1FBC00
03FF0FBC00
03FE0FF800
01FE0FF800
01FE07F800
01FC07F000
00FC07F000
00FC03F000
007801E000
007801E000
0000000000
0000000000
0000000000
0000000000
0000000000
0000000000
0000000000
0000000000
0000000000
0000000000
ENDCHAR

STARTCHAR X
ENCODING 88
SWIDTH 914 0
DWIDTH 32 0
BBX 32 37 0 -10
BITMAP
00000000
00000000
00000000
FFFCFFF0
FFFCFFF0
FFFCFFF0
1FC03F80
07C03E00
03E07C00
01F0F800
00F1F000
00FBE000
007FC000
003F8000
001F8000
001F8000
003FC000
007FE000
00FBF000
01F1F800
03E0FC00
07C0FE00
0F807F00
3F807FC0
FFF3FFF0
FFF3FFF0
FFF3FFF0
00000000
00000000
00000000
00000000
00000000
00000000
00000000
00000000
00000000
00000000
ENDCHAR

STARTCHAR Y
ENCODING 89
SWIDTH 828 0
DWIDTH 29 0
BBX 29 37 0 -10
BITMAP
00000000
00000000
00000000
FFF3FF80
FFF3FF80
FFF3FF80
FFF3FF80
3FC07E00
0FC07800
07E0F800
07F0F000
03F1E000
01FBE000
00FFC000
00FF8000
007F8000
003F0000
003F0000
003F0000
003F0000
003F0000
003F0000
003F0000
003F0000
07FFF000
07FFF000
07FFF000
00000000
00000000
00000000
00000000
00000000
00000000
00000000
00000000
00000000
00000000
ENDCHAR

STARTCHAR Z
ENCODING 90
SWIDTH 771 0
DWIDTH 27 0
BBX 27 37 0 -10
BITMAP
00000000
00000000
00000000
FFFFFE00
FFFFFE00
FFFFFE00
FE01FE00
F803FC00
F807F800
F00FF000
F01FE000
F03FC000
F07F8000
007F0000
00FE0000
01FE0000
03FC0000
07F81E00
0FF01E00
1FE01E00
3FC03E00
7F803E00
FF00FE00
FFFFFE00
FFFFFE00
FFFFFE00
FFFFFE00
00000000
00000000
00000000
00000000
00000000
00000000
00000000
00000000
00000000
00000000
ENDCHAR

STARTCHAR [
ENCODING 91
SWIDTH 428 0
DWIDTH 15 0
BBX 15 37 0 -10
BITMAP
FF80
FF80
FF80
FC00
F800
F800
F800
F800
F800
F800
F800
F800
F800
F800
F800
F800
F800
F800
F800
F800
F800
F800
F800
F800
F800
F800
F800
FC00
FF80
FF80
FF80
0000
0000
0000
0000
0000
0000
ENDCHAR

STARTCHAR \
ENCODING 92
SWIDTH 457 0
DWIDTH 16 0
BBX 16 37 0 -10
BITMAP
0000
F000
7000
7800
7800
3800
3C00
3C00
1C00
1E00
1E00
0E00
0F00
0F00
0700
0780
0780
0380
03C0
03C0
01C0
01E0
01E0
00E0
00F0
00F0
0070
0078
0078
0038
0038
0000
0000
0000
0000
0000
0000
ENDCHAR

STARTCHAR ]
ENCODING 93
SWIDTH 428 0
DWIDTH 15 0
BBX 15 37 0 -10
BITMAP
FF80
FF80
FF80
1F80
0F80
0F80
0F80
0F80
0F80
0F80
0F80
0F80
0F80
0F80
0F80
0F80
0F80
0F80
0F80
0F80
0F80
0F80
0F80
0F80
0F80
0F80
0F80
1F80
FF80
FF80
FF80
0000
0000
0000
0000
0000
0000
ENDCHAR

STARTCHAR _
ENCODING 95
SWIDTH 914 0
DWIDTH 32 0
BBX 32 37 0 -10
BITMAP
00000000
00000000
00000000
00000000
00000000
00000000
00000000
00000000
00000000
00000000
00000000
00000000
00000000
00000000
00000000
00000000
00000000
00000000
00000000
00000000
00000000
00000000
00000000
00000000
00000000
00000000
00000000
FFFFFFFF
FFFFFFFF
FFFFFFFF
00000000
00000000
00000000
00000000
00000000
00000000
00000000
ENDCHAR

STARTCHAR `
ENCODING 96
SWIDTH 257 0
DWIDTH 9 0
BBX 9 37 0 -10
BITMAP
0000
0000
0000
3C00
7F00
FF00
FF00
E700
C000
6000
3800
1C00
0C00
0800
0000
0000
0000
0000
0000
0000
0000
0000
0000
0000
0000
0000
0000
0000
0000
0000
0000
0000
0000
0000
0000
0000
0000
ENDCHAR

STARTCHAR a
ENCODING 97
SWIDTH 657 0
DWIDTH 23 0
BBX 23 37 0 -10
BITMAP
000000
000000
000000
000000
000000
000000
000000
000000
000000
000000
000000
000000
0FF000
3FFC00
7FFE00
FC1F00
FE1F00
7C1F00
001F00
07FF00
3FFF00
7F1F00
FC1F70
FC3F70
FFFFF0
7FCFE0
3F07C0
000000
000000
000000
000000
000000
000000
000000
000000
000000
000000
ENDCHAR

STARTCHAR b
ENCODING 98
SWIDTH 685 0
DWIDTH 24 0
BBX 24 37 0 -10
BITMAP
000000
000000
000000
FF0000
FF0000
FF0000
FF0000
3F0000
3F0000
3F0000
3F0000
3F0000
3F3F00
3FFFC0
3FFFE0
3F83F0
3F01F0
3F01F8
3F01F8
3F01F8
3F01F8
3F01F8
3F01F0
3F83F0
3FFFE0
3DFFC0
387F00
000000
000000
000000
000000
000000
000000
000000
000000
000000
000000
ENDCHAR

STARTCHAR c
ENCODING 99
SWIDTH 514 0
DWIDTH 18 0
BBX 18 37 0 -10
BITMAP
000000
000000
000000
000000
000000
000000
000000
000000
000000
000000
000000
000000
0FE000
3FF800
7E7C00
7C3E00
F87E00
F87E00
F83C00
F80000
F80000
F81E00
F81E00
7C1E00
7FFC00
3FF800
0FE000
000000
000000
000000
000000
000000
000000
000000
000000
000000
000000
ENDCHAR

STARTCHAR d
ENCODING 100
SWIDTH 685 0
DWIDTH 24 0
BBX 24 37 0 -10
BITMAP
000000
000000
000000
007FE0
007FE0
007FE0
0007E0
0007E0
0007E0
0007E0
0007E0
0007E0
07C7E0
1FF7E0
3FFFE0
7E1FE0
7C0FE0
F807E0
F807E0
F807E0
F807E0
F807E0
FC0FE0
7E1FE0
7FFFF8
3FFFF8
0FE7F8
000000
000000
000000
000000
000000
000000
000000
000000
000000
000000
ENDCHAR

STARTCHAR e
ENCODING 101
SWIDTH 571 0
DWIDTH 20 0
BBX 20 37 0 -10
BITMAP
000000
000000
000000
000000
000000
000000
000000
000000
000000
000000
000000
000000
07F800
1FFE00
3FFF00
7E1F00
7C0F80
FFFF80
FFFF80
FFFF80
FC0000
FC0000
7C0780
7E0F80
3FFF00
1FFE00
07F800
000000
000000
000000
000000
000000
000000
000000
000000
000000
000000
ENDCHAR

STARTCHAR f
ENCODING 102
SWIDTH 514 0
DWIDTH 18 0
BBX 18 37 0 -10
BITMAP
000000
000000
000000
00F000
03FC00
07FE00
0F8F00
0F9F00
1F9F00
1F8E00
1F8000
1F8000
FFFC00
FFFC00
FFFC00
1F8000
1F8000
1F8000
1F8000
1F8000
1F8000
1F8000
1F8000
1F8000
3FC000
FFF800
FFF800
000000
000000
000000
000000
000000
000000
000000
000000
000000
000000
ENDCHAR

STARTCHAR g
ENCODING 103
SWIDTH 685 0
DWIDTH 24 0
BBX 24 37 0 -10
BITMAP
000000
000000
000000
000000
000000
000000
000000
000000
000000
000000
000000
000070
03F0F8
0FFFF8
1FFFF8
3E1F30
7C0F80
7C0F80
FC0F80
FC0F80
7C0F80
3FFF00
3FFC00
3FF000
700000
F00000
FFFF00
FFFFC0
7FFFE0
7C03E0
F001E0
F003E0
FFFFC0
7FFF80
1FFE00
000000
000000
ENDCHAR

STARTCHAR h
ENCODING 104
SWIDTH 771 0
DWIDTH 27 0
BBX 27 37 0 -10
BITMAP
00000000
00000000
00000000
FF000000
FF000000
FF000000
1F000000
1F000000
1F000000
1F000000
1F000000
1F000000
1F0F8000
1F3FE000
1F7FF000
1FFFF000
1FC1F800
1F81F800
1F81F800
1F81F800
1F81F800
1F81F800
1F81F800
1F81F800
FFE7FF00
FFE7FF00
FFE7FF00
00000000
00000000
00000000
00000000
00000000
00000000
00000000
00000000
00000000
00000000
ENDCHAR

STARTCHAR i
ENCODING 105
SWIDTH 428 0
DWIDTH 15 0
BBX 15 37 0 -10
BITMAP
0000
0000
0000
0000
1F00
3F80
3F80
3F80
3F80
1F00
0000
0000
FF80
FF80
FF80
3F80
1F80
1F80
1F80
1F80
1F80
1F80
1F80
3FC0
FFF0
FFF0
FFF0
0000
0000
0000
0000
0000
0000
0000
0000
0000
0000
ENDCHAR

STARTCHAR j
ENCODING 106
SWIDTH 428 0
DWIDTH 15 0
BBX 15 37 0 -10
BITMAP
0000
0000
0000
0000
0000
03E0
07F0
07F0
07F0
07F0
03E0
0000
3FF0
3FF0
3FF0
07F0
03F0
03F0
03F0
03F0
03F0
03F0
03F0
03F0
03F0
03F0
03F0
03F0
03F0
73F0
FBF0
FBF0
F3E0
F3E0
7FC0
3F00
0000
ENDCHAR

STARTCHAR k
ENCODING 107
SWIDTH 771 0
DWIDTH 27 0
BBX 27 37 0 -10
BITMAP
00000000
00000000
00000000
FF000000
FF000000
FF000000
3F000000
1F000000
1F000000
1F000000
1F000000
1F000000
1F0FFC00
1F0FFC00
1F0FFC00
1F07E000
1F0FC000
1F3F8000
1F7F8000
1FFFC000
1FEFE000
1FC7F000
1F83F800
3F81FC00
FFE7FF00
FFE7FF00
FFE7FF00
00000000
00000000
00000000
00000000
00000000
00000000
00000000
00000000
00000000
00000000
ENDCHAR

STARTCHAR l
ENCODING 108
SWIDTH 428 0
DWIDTH 15 0
BBX 15 37 0 -10
BITMAP
0000
0000
0000
FF80
FF80
FF80
3F80
1F80
1F80
1F80
1F80
1F80
1F80
1F80
1F80
1F80
1F80
1F80
1F80
1F80
1F80
1F80
1F80
3FC0
FFF0
FFF0
FFF0
0000
0000
0000
0000
0000
0000
0000
0000
0000
0000
ENDCHAR

STARTCHAR m
ENCODING 109
SWIDTH 885 0
DWIDTH 31 0
BBX 31 37 0 -10
BITMAP
00000000
00000000
00000000
00000000
00000000
00000000
00000000
00000000
00000000
00000000
00000000
00000000
FE3C1E00
FEFE7F80
FFFEFFC0
3F9FC7C0
3F0F87C0
3E0F87C0
3E0F87C0
3E0F87C0
3E0F87C0
3E0F87C0
3E0F87C0
3E0F87C0
FF1FCFF0
FF1FCFF0
FF1FCFF0
00000000
00000000
00000000
00000000
00000000
00000000
00000000
00000000
00000000
00000000
ENDCHAR

STARTCHAR n
ENCODING 110
SWIDTH 657 0
DWIDTH 23 0
BBX 23 37 0 -10
BITMAP
000000
000000
000000
000000
000000
000000
000000
000000
000000
000000
000000
000000
FE3E00
FEFF00
FFFF80
3F8F80
1F0780
1E0780
1E0780
1E0780
1E0780
1E0780
1E0780
3E07C0
FF9FF0
FF9FF0
FF9FF0
000000
000000
000000
000000
000000
000000
000000
000000
000000
000000
ENDCHAR

STARTCHAR o
ENCODING 111
SWIDTH 542 0
DWIDTH 19 0
BBX 19 37 0 -10
BITMAP
000000
000000
000000
000000
000000
000000
000000
000000
000000
000000
000000
000000
07E000
1FF800
3FFC00
7C3E00
781E00
F81F00
F81F00
F81F00
F81F00
F81F00
781E00
7C3E00
3FFC00
1FF800
07E000
000000
000000
000000
000000
000000
000000
000000
000000
000000
000000
ENDCHAR

STARTCHAR p
ENCODING 112
SWIDTH 714 0
DWIDTH 25 0
BBX 25 37 0 -10
BITMAP
00000000
00000000
00000000
00000000
00000000
00000000
00000000
00000000
00000000
00000000
00000000
00000000
FF1F0000
FF7FC000
FFFFF000
3FC3F800
1F81F800
1F00FC00
1F00FC00
1F00FC00
1F00FC00
1F00FC00
1F01F800
1F83F800
1FFFF000
1FFFC000
1F7F0000
1F000000
1F000000
1F000000
1F000000
3F800000
FFF00000
FFF00000
00000000
00000000
00000000
ENDCHAR

STARTCHAR q
ENCODING 113
SWIDTH 714 0
DWIDTH 25 0
BBX 25 37 0 -10
BITMAP
00000000
00000000
00000000
00000000
00000000
00000000
00000000
00000000
00000000
00000000
00000000
00000000
03E3F000
0FFBF000
3FFFF000
7FFFF000
7E07F000
FE03F000
FC03F000
FC03F000
FC03F000
FC03F000
7E03F000
7F07F000
3FFFF000
0FFFF000
03FBF000
0003F000
0003F000
0003F000
0003F000
0003F000
0007F800
001FFC00
001FFC00
00000000
00000000
ENDCHAR

STARTCHAR r
ENCODING 114
SWIDTH 600 0
DWIDTH 21 0
BBX 21 37 0 -10
BITMAP
000000
000000
000000
000000
000000
000000
000000
000000
000000
000000
000000
000000
FF1F00
FF7F80
FFFFC0
3FC3C0
1F87C0
1F07C0
1F0380
1F0000
1F0000
1F0000
1F0000
3F8000
FFF000
FFF000
FFF000
000000
000000
000000
000000
000000
000000
000000
000000
000000
000000
ENDCHAR

STARTCHAR s
ENCODING 115
SWIDTH 542 0
DWIDTH 19 0
BBX 19 37 0 -10
BITMAP
000000
000000
000000
000000
000000
000000
000000
000000
000000
000000
000000
000000
0FC700
3FF700
787F00
F81F00
F80F00
FC0000
7F8000
3FF800
0FFE00
00FF00
E03F00
F01F00
F81F00
FFFE00
E7F800
000000
000000
000000
000000
000000
000000
000000
000000
000000
000000
ENDCHAR

STARTCHAR t
ENCODING 116
SWIDTH 485 0
DWIDTH 17 0
BBX 17 37 0 -10
BITMAP
000000
000000
000000
000000
000000
000000
070000
070000
070000
070000
0F0000
1F0000
FFF800
FFF800
FFF800
1F0000
1F0000
1F0000
1F0000
1F0000
1F1C00
1F1C00
1F1C00
1FF800
0FF800
0FF000
03E000
000000
000000
000000
000000
000000
000000
000000
000000
000000
000000
ENDCHAR

STARTCHAR u
ENCODING 117
SWIDTH 657 0
DWIDTH 23 0
BBX 23 37 0 -10
BITMAP
000000
000000
000000
000000
000000
000000
000000
000000
000000
000000
000000
000000
FE3FC0
FE3FC0
FE3FC0
3E0FC0
3E07C0
3E07C0
3E07C0
3E07C0
3E07C0
3E07C0
3E0FC0
3F1FC0
1FFFF0
0FF7F0
03C7F0
000000
000000
000000
000000
000000
000000
000000
000000
000000
000000
ENDCHAR

STARTCHAR v
ENCODING 118
SWIDTH 657 0
DWIDTH 23 0
BBX 23 37 0 -10
BITMAP
000000
000000
000000
000000
000000
000000
000000
000000
000000
000000
000000
000000
FFCFF0
FFCFF0
FFCFF0
3E03C0
1E03C0
1E0380
0F0780
0F8700
078700
07CE00
03CE00
03CC00
01FC00
01F800
00F800
000000
000000
000000
000000
000000
000000
000000
000000
000000
000000
ENDCHAR

STARTCHAR w
ENCODING 119
SWIDTH 971 0
DWIDTH 34 0
BBX 34 37 0 -10
BITMAP
0000000000
0000000000
0000000000
0000000000
0000000000
0000000000
0000000000
0000000000
0000000000
0000000000
0000000000
0000000000
FF9FF9FE00
FF9FF9FE00
FF9FF9FE00
3E07E07800
3F07E07800
1F0FF07000
1F0FF0F000
1F9EF8E000
0F9CF9E000
0FFC7DC000
0FF87FC000
07F83F8000
07F03F8000
03E01F0000
03E01F0000
0000000000
0000000000
0000000000
0000000000
0000000000
0000000000
0000000000
0000000000
0000000000
0000000000
ENDCHAR

STARTCHAR x
ENCODING 120
SWIDTH 628 0
DWIDTH 22 0
BBX 22 37 0 -10
BITMAP
000000
000000
000000
000000
000000
000000
000000
000000
000000
000000
000000
000000
FF9FE0
FF9FE0
FF9FE0
3F0F00
0F9E00
07FC00
03F800
01F800
03FC00
07BE00
0F1F00
1E0F80
FF3FE0
FF3FE0
FF3FE0
000000
000000
000000
000000
000000
000000
000000
000000
000000
000000
ENDCHAR

STARTCHAR y
ENCODING 121
SWIDTH 714 0
DWIDTH 25 0
BBX 25 37 0 -10
BITMAP
00000000
00000000
00000000
00000000
00000000
00000000
00000000
00000000
00000000
00000000
00000000
00000000
FFE7FC00
FFE7FC00
FFE7FC00
3F81F000
1F81E000
0FC3C000
07C3C000
07C78000
03E78000
03EF0000
01FE0000
01FE0000
00FC0000
00FC0000
00780000
30780000
78F00000
F8E00000
F9E00000
FBC00000
FF800000
7F000000
1C000000
00000000
00000000
ENDCHAR

STARTCHAR z
ENCODING 122
SWIDTH 628 0
DWIDTH 22 0
BBX 22 37 0 -10
BITMAP
000000
000000
000000
000000
000000
000000
000000
000000
000000
000000
000000
000000
FFFFC0
FFFFC0
FFFF80
F83F00
F07E00
F0FC00
01F800
03F000
07E000
0FC3C0
1F83C0
7F07C0
FFFFC0
FFFFC0
FFFFC0
000000
000000
000000
000000
000000
000000
000000
000000
000000
000000
ENDCHAR

STARTCHAR {
ENCODING 123
SWIDTH 714 0
DWIDTH 25 0
BBX 25 37 0 -10
BITMAP
00000000
00000000
07800000
0F000000
1C000000
38000000
38000000
38000000
38000000
3C000000
3C000000
3C000000
3C000000
3C000000
3C000000
78000000
F8000000
F8000000
F8000000
F8000000
78000000
3C000000
3C000000
3C000000
3C000000
3C000000
3C000000
38000000
38000000
38000000
38000000
1C000000
0F000000
07800000
00000000
00000000
00000000
ENDCHAR

STARTCHAR |
ENCODING 124
SWIDTH 228 0
DWIDTH 8 0
BBX 8 37 0 -10
BITMAP
00
00
00
F0
F0
F0
F0
F0
F0
F0
F0
F0
F0
F0
F0
F0
F0
F0
F0
F0
F0
F0
F0
F0
F0
F0
F0
F0
F0
F0
F0
F0
F0
00
00
00
00
ENDCHAR

STARTCHAR }
ENCODING 125
SWIDTH 714 0
DWIDTH 25 0
BBX 25 37 0 -10
BITMAP
00000000
00000000
F0000000
78000000
1C000000
1E000000
0E000000
0E000000
1C000000
1C000000
1C000000
1C000000
1C000000
1C000000
1C000000
0E000000
0F000000
0F000000
0F000000
0F000000
0E000000
1C000000
1C000000
1C000000
1C000000
1C000000
1C000000
1C000000
0E000000
0E000000
1E000000
1C000000
78000000
F0000000
00000000
00000000
00000000
ENDCHAR

STARTCHAR ~
ENCODING 126
SWIDTH 714 0
DWIDTH 25 0
BBX 25 37 0 -10
BITMAP
00000000
00000000
00000000
00000000
00000000
00000000
00000000
00000000
00000000
00000000
0F800800
1FC00800
3FE00800
7FF01800
7FF83800
71FC7000
E0FFF000
C07FF000
803FE000
801FC000
800F8000
00000000
00000000
00000000
00000000
00000000
00000000
00000000
00000000
00000000
00000000
00000000
00000000
00000000
00000000
00000000
00000000
ENDCHAR

STARTCHAR C177
ENCODING 127
SWIDTH 628 0
DWIDTH 22 0
BBX 22 37 0 -10
BITMAP
000000
000000
000000
000000
0000F0
0001F8
00039C
00039C
000700
000700
000E00
000E00
001C00
001C00
003800
003800
007000
007000
00E000
00E000
01C000
01C000
038000
038000
E70000
E70000
7E0000
380000
000000
000000
000000
000000
000000
000000
000000
000000
000000
ENDCHAR
ENDFONT
